<mxfile host="65bd71144e">
    <diagram id="TOn9vnGETn62J-ARthUI" name="Page-1">
        <mxGraphModel dx="922" dy="528" grid="1" gridSize="10" guides="1" tooltips="1" connect="1" arrows="1" fold="1" page="1" pageScale="1" pageWidth="850" pageHeight="1100" math="0" shadow="0">
            <root>
                <mxCell id="0"/>
                <mxCell id="1" parent="0"/>
                <mxCell id="2" value="organisateur evenement" style="shape=umlLifeline;participant=umlActor;perimeter=lifelinePerimeter;whiteSpace=wrap;html=1;container=1;collapsible=0;recursiveResize=0;verticalAlign=top;spacingTop=36;outlineConnect=0;" parent="1" vertex="1">
                    <mxGeometry x="350" y="90" width="20" height="840" as="geometry"/>
                </mxCell>
                <mxCell id="49" value="" style="html=1;points=[];perimeter=orthogonalPerimeter;" vertex="1" parent="2">
                    <mxGeometry x="5" y="90" width="10" height="190" as="geometry"/>
                </mxCell>
                <mxCell id="3" value="API" style="shape=umlLifeline;perimeter=lifelinePerimeter;whiteSpace=wrap;html=1;container=1;collapsible=0;recursiveResize=0;outlineConnect=0;" parent="1" vertex="1">
                    <mxGeometry x="550" y="100" width="100" height="850" as="geometry"/>
                </mxCell>
                <mxCell id="38" value="" style="shape=umlDestroy;whiteSpace=wrap;html=1;strokeWidth=3;" parent="3" vertex="1">
                    <mxGeometry x="35" y="820" width="30" height="30" as="geometry"/>
                </mxCell>
                <mxCell id="53" value="" style="html=1;points=[];perimeter=orthogonalPerimeter;" vertex="1" parent="3">
                    <mxGeometry x="40" y="110" width="10" height="230" as="geometry"/>
                </mxCell>
                <mxCell id="4" value="BDD" style="shape=umlLifeline;perimeter=lifelinePerimeter;whiteSpace=wrap;html=1;container=1;collapsible=0;recursiveResize=0;outlineConnect=0;" parent="1" vertex="1">
                    <mxGeometry x="670" y="100" width="100" height="830" as="geometry"/>
                </mxCell>
                <mxCell id="57" value="" style="html=1;points=[];perimeter=orthogonalPerimeter;" vertex="1" parent="4">
                    <mxGeometry x="40" y="130" width="10" height="80" as="geometry"/>
                </mxCell>
                <mxCell id="37" value="" style="shape=umlDestroy;whiteSpace=wrap;html=1;strokeWidth=3;" parent="1" vertex="1">
                    <mxGeometry x="705" y="920" width="30" height="30" as="geometry"/>
                </mxCell>
                <mxCell id="39" value="IHM" style="shape=umlLifeline;perimeter=lifelinePerimeter;whiteSpace=wrap;html=1;container=1;collapsible=0;recursiveResize=0;outlineConnect=0;" vertex="1" parent="1">
                    <mxGeometry x="430" y="100" width="100" height="850" as="geometry"/>
                </mxCell>
                <mxCell id="40" value="" style="shape=umlDestroy;whiteSpace=wrap;html=1;strokeWidth=3;" vertex="1" parent="39">
                    <mxGeometry x="35" y="820" width="30" height="30" as="geometry"/>
                </mxCell>
                <mxCell id="50" value="" style="html=1;points=[];perimeter=orthogonalPerimeter;" vertex="1" parent="39">
                    <mxGeometry x="40" y="90" width="10" height="180" as="geometry"/>
                </mxCell>
                <mxCell id="60" value="return" style="html=1;verticalAlign=bottom;endArrow=open;dashed=1;endSize=8;exitX=0;exitY=0.95;" edge="1" parent="39">
                    <mxGeometry relative="1" as="geometry">
                        <mxPoint x="50" y="239.99999999999955" as="targetPoint"/>
                        <mxPoint x="160.5" y="239.99999999999955" as="sourcePoint"/>
                    </mxGeometry>
                </mxCell>
                <mxCell id="41" value="sportif" style="shape=umlLifeline;participant=umlActor;perimeter=lifelinePerimeter;whiteSpace=wrap;html=1;container=1;collapsible=0;recursiveResize=0;verticalAlign=top;spacingTop=36;outlineConnect=0;" vertex="1" parent="1">
                    <mxGeometry x="110" y="90" width="20" height="840" as="geometry"/>
                </mxCell>
                <mxCell id="62" value="" style="html=1;points=[];perimeter=orthogonalPerimeter;" vertex="1" parent="41">
                    <mxGeometry x="5" y="360" width="10" height="20" as="geometry"/>
                </mxCell>
                <mxCell id="43" value="IHM" style="shape=umlLifeline;perimeter=lifelinePerimeter;whiteSpace=wrap;html=1;container=1;collapsible=0;recursiveResize=0;outlineConnect=0;" vertex="1" parent="1">
                    <mxGeometry x="190" y="100" width="100" height="850" as="geometry"/>
                </mxCell>
                <mxCell id="35" value="" style="shape=umlDestroy;whiteSpace=wrap;html=1;strokeWidth=3;" parent="43" vertex="1">
                    <mxGeometry x="35" y="820" width="30" height="30" as="geometry"/>
                </mxCell>
                <mxCell id="61" value="" style="html=1;points=[];perimeter=orthogonalPerimeter;" vertex="1" parent="43">
                    <mxGeometry x="45" y="320" width="10" height="50" as="geometry"/>
                </mxCell>
                <mxCell id="44" value="" style="shape=umlDestroy;whiteSpace=wrap;html=1;strokeWidth=3;" vertex="1" parent="1">
                    <mxGeometry x="345" y="920" width="30" height="30" as="geometry"/>
                </mxCell>
                <mxCell id="45" value="" style="shape=umlDestroy;whiteSpace=wrap;html=1;strokeWidth=3;" vertex="1" parent="1">
                    <mxGeometry x="105" y="920" width="30" height="30" as="geometry"/>
                </mxCell>
                <mxCell id="51" value="Met à jour&lt;br&gt;évènement" style="html=1;verticalAlign=bottom;endArrow=block;entryX=0;entryY=0;" edge="1" target="50" parent="1" source="49">
                    <mxGeometry relative="1" as="geometry">
                        <mxPoint x="400" y="190" as="sourcePoint"/>
                    </mxGeometry>
                </mxCell>
                <mxCell id="52" value="return" style="html=1;verticalAlign=bottom;endArrow=open;dashed=1;endSize=8;exitX=0;exitY=0.95;" edge="1" source="50" parent="1" target="2">
                    <mxGeometry relative="1" as="geometry">
                        <mxPoint x="400" y="266" as="targetPoint"/>
                    </mxGeometry>
                </mxCell>
                <mxCell id="54" value="met à jour&lt;br&gt;évènement" style="html=1;verticalAlign=bottom;endArrow=block;entryX=0;entryY=0;" edge="1" target="53" parent="1" source="39">
                    <mxGeometry relative="1" as="geometry">
                        <mxPoint x="520" y="210" as="sourcePoint"/>
                    </mxGeometry>
                </mxCell>
                <mxCell id="58" value="met à jour&amp;nbsp;&lt;br&gt;évènement" style="html=1;verticalAlign=bottom;endArrow=block;entryX=0;entryY=0;" edge="1" target="57" parent="1" source="3">
                    <mxGeometry relative="1" as="geometry">
                        <mxPoint x="640" y="230" as="sourcePoint"/>
                    </mxGeometry>
                </mxCell>
                <mxCell id="55" value="return" style="html=1;verticalAlign=bottom;endArrow=open;dashed=1;endSize=8;exitX=0;exitY=0.95;" edge="1" source="53" parent="1" target="43">
                    <mxGeometry relative="1" as="geometry">
                        <mxPoint x="520" y="286" as="targetPoint"/>
                    </mxGeometry>
                </mxCell>
                <mxCell id="59" value="return" style="html=1;verticalAlign=bottom;endArrow=open;dashed=1;endSize=8;exitX=0;exitY=0.95;" edge="1" source="57" parent="1" target="3">
                    <mxGeometry relative="1" as="geometry">
                        <mxPoint x="640" y="306" as="targetPoint"/>
                    </mxGeometry>
                </mxCell>
                <mxCell id="63" value="return" style="html=1;verticalAlign=bottom;endArrow=open;dashed=1;endSize=8;" edge="1" parent="1" target="41">
                    <mxGeometry relative="1" as="geometry">
                        <mxPoint x="240" y="460" as="sourcePoint"/>
                        <mxPoint x="160" y="470" as="targetPoint"/>
                    </mxGeometry>
                </mxCell>
                <mxCell id="64" value="Si pas d'erreur lors de la mise à jour" style="shape=umlFrame;whiteSpace=wrap;html=1;" vertex="1" parent="1">
                    <mxGeometry x="45" y="400" width="755" height="100" as="geometry"/>
                </mxCell>
            </root>
        </mxGraphModel>
    </diagram>
</mxfile>